<svg width="30" height="30" viewBox="0 0 30 30" fill="none" xmlns="http://www.w3.org/2000/svg">
<g id="shuffle">
<g id="Vector">
<path fill-rule="evenodd" clip-rule="evenodd" d="M0 6.5625C0 6.04474 0.419733 5.625 0.9375 5.625H1.875C6.00393 5.625 9.05065 7.95055 11.0132 10.1584C11.9333 11.1936 12.6364 12.2253 13.125 13.0312C13.6136 12.2253 14.3167 11.1936 15.2368 10.1584C17.1993 7.95055 20.2461 5.625 24.375 5.625V7.5C21.0039 7.5 18.4257 9.3932 16.6382 11.4041C15.7504 12.4029 15.0815 13.4056 14.6346 14.1596C14.4324 14.5009 14.2769 14.7891 14.1683 15C14.2769 15.2109 14.4324 15.4991 14.6346 15.8404C15.0815 16.5944 15.7504 17.5971 16.6382 18.5959C18.4257 20.6068 21.0039 22.5 24.375 22.5V24.375C20.2461 24.375 17.1993 22.0495 15.2368 19.8416C14.3167 18.8064 13.6136 17.7747 13.125 16.9688C12.6364 17.7747 11.9333 18.8064 11.0132 19.8416C9.05065 22.0495 6.00393 24.375 1.875 24.375H0.9375C0.419733 24.375 0 23.9553 0 23.4375C0 22.9197 0.419733 22.5 0.9375 22.5H1.875C5.24607 22.5 7.82435 20.6068 9.6118 18.5959C10.4996 17.5971 11.1685 16.5944 11.6154 15.8404C11.8176 15.4991 11.9731 15.2109 12.0817 15C11.9731 14.7891 11.8176 14.5009 11.6154 14.1596C11.1685 13.4056 10.4996 12.4029 9.6118 11.4041C7.82435 9.3932 5.24607 7.5 1.875 7.5H0.9375C0.419733 7.5 0 7.08027 0 6.5625Z" fill="#111827"/>
<path d="M24.375 10.2492V2.8758C24.375 2.47838 24.8385 2.26128 25.1438 2.5157L29.5679 6.2024C29.7928 6.3898 29.7928 6.7352 29.5679 6.92261L25.1438 10.6093C24.8385 10.8637 24.375 10.6466 24.375 10.2492Z" fill="#111827"/>
<path d="M24.375 27.1242V19.7508C24.375 19.3534 24.8385 19.1363 25.1438 19.3907L29.5679 23.0774C29.7928 23.2648 29.7928 23.6102 29.5679 23.7976L25.1438 27.4843C24.8385 27.7387 24.375 27.5216 24.375 27.1242Z" fill="#111827"/>
</g>
</g>
</svg>
